<svg xmlns="http://www.w3.org/2000/svg" viewBox="0 0 1600 900" role="img" aria-label="Placeholder - care team">
  <!-- ============================================================
       PLACEHOLDER 3 - EQUIPO / PERSONAL
       IMAGEN DE RELLENO. Reemplazar con una foto real del equipo
       o del personal atendiendo (horizontal, ~1600x900).
       Se cambia desde el panel admin -> Banner Photos.
       ============================================================ -->
  <defs>
    <linearGradient id="b3" x1="0" y1="0" x2="0" y2="1">
      <stop offset="0%" stop-color="#123449"/>
      <stop offset="100%" stop-color="#0a1420"/>
    </linearGradient>
  </defs>

  <rect width="1600" height="900" fill="url(#b3)"/>

  <!-- Tres siluetas del personal -->
  <g opacity="0.45" fill="none" stroke="#2dd4bf" stroke-width="6">
    <!-- izquierda -->
    <circle cx="620" cy="330" r="58"/>
    <path d="M520 620 C520 500 570 440 620 440 C670 440 720 500 720 620"/>
    <!-- centro -->
    <circle cx="800" cy="300" r="66"/>
    <path d="M686 640 C686 500 742 424 800 424 C858 424 914 500 914 640"/>
    <!-- derecha -->
    <circle cx="980" cy="330" r="58"/>
    <path d="M880 620 C880 500 930 440 980 440 C1030 440 1080 500 1080 620"/>
  </g>

  <!-- Piso -->
  <line x1="200" y1="640" x2="1400" y2="640" stroke="#4d8fd6" stroke-width="4" opacity="0.3"/>

  <!-- Etiqueta -->
  <text x="800" y="770" text-anchor="middle" fill="#9db2c2" opacity="0.75"
        font-family="Arial, Helvetica, sans-serif" font-size="34" letter-spacing="4">
    PLACEHOLDER - REPLACE WITH REAL PHOTO
  </text>
  <text x="800" y="820" text-anchor="middle" fill="#2dd4bf" opacity="0.6"
        font-family="Arial, Helvetica, sans-serif" font-size="26" letter-spacing="2">
    Our team / Patient care
  </text>
</svg>
